<svg width="23" height="20" viewBox="0 0 23 20" fill="none" xmlns="http://www.w3.org/2000/svg">
<path d="M21.625 0.5H1.375C1.07663 0.5 0.790483 0.618527 0.579505 0.829505C0.368526 1.04048 0.25 1.32663 0.25 1.625V17.375C0.25 17.9717 0.487053 18.544 0.90901 18.966C1.33097 19.3879 1.90326 19.625 2.5 19.625H20.5C21.0967 19.625 21.669 19.3879 22.091 18.966C22.5129 18.544 22.75 17.9717 22.75 17.375V1.625C22.75 1.32663 22.6315 1.04048 22.4205 0.829505C22.2095 0.618527 21.9234 0.5 21.625 0.5ZM11.5 10.625C7.77738 10.625 4.75 7.59762 4.75 3.875H7C7 6.35675 9.01825 8.375 11.5 8.375C13.9818 8.375 16 6.35675 16 3.875H18.25C18.25 7.59762 15.2226 10.625 11.5 10.625Z" fill="currentColor"/>
</svg>
