<svg width="18" height="16" viewBox="0 0 18 16" fill="none" xmlns="http://www.w3.org/2000/svg">
<path d="M17.0273 3.53908C16.7655 2.9329 16.3881 2.38359 15.916 1.92189C15.4436 1.45881 14.8866 1.09082 14.2754 0.837904C13.6416 0.57461 12.9617 0.43984 12.2754 0.44142C11.3125 0.44142 10.373 0.705092 9.55664 1.20314C9.36133 1.32228 9.17578 1.45314 9 1.59572C8.82422 1.45314 8.63867 1.32228 8.44336 1.20314C7.62695 0.705092 6.6875 0.44142 5.72461 0.44142C5.03125 0.44142 4.35938 0.574233 3.72461 0.837904C3.11133 1.09181 2.55859 1.45705 2.08398 1.92189C1.61132 2.38306 1.23375 2.93251 0.972656 3.53908C0.701172 4.16994 0.5625 4.83986 0.5625 5.52931C0.5625 6.1797 0.695313 6.85744 0.958984 7.54689C1.17969 8.12306 1.49609 8.72072 1.90039 9.32423C2.54102 10.2793 3.42188 11.2754 4.51562 12.2852C6.32812 13.959 8.12305 15.1152 8.19922 15.1621L8.66211 15.459C8.86719 15.5899 9.13086 15.5899 9.33594 15.459L9.79883 15.1621C9.875 15.1133 11.668 13.959 13.4824 12.2852C14.5762 11.2754 15.457 10.2793 16.0977 9.32423C16.502 8.72072 16.8203 8.12306 17.0391 7.54689C17.3027 6.85744 17.4355 6.1797 17.4355 5.52931C17.4375 4.83986 17.2988 4.16994 17.0273 3.53908ZM9 13.9141C9 13.9141 2.04688 9.459 2.04688 5.52931C2.04688 3.53908 3.69336 1.92579 5.72461 1.92579C7.15234 1.92579 8.39062 2.72267 9 3.88673C9.60938 2.72267 10.8477 1.92579 12.2754 1.92579C14.3066 1.92579 15.9531 3.53908 15.9531 5.52931C15.9531 9.459 9 13.9141 9 13.9141Z" fill="currentColor"/>
</svg>
