<svg width="20" height="24" viewBox="0 0 20 24" fill="none" xmlns="http://www.w3.org/2000/svg">
<path d="M6.25 3.25001C5.91848 3.25001 5.60054 3.38171 5.36612 3.61613C5.1317 3.85055 5 4.16849 5 4.50001C5 4.83153 5.1317 5.14947 5.36612 5.38389C5.60054 5.61832 5.91848 5.75001 6.25 5.75001C6.58152 5.75001 6.89946 5.61832 7.13388 5.38389C7.3683 5.14947 7.5 4.83153 7.5 4.50001C7.5 4.16849 7.3683 3.85055 7.13388 3.61613C6.89946 3.38171 6.58152 3.25001 6.25 3.25001ZM2.7125 3.25001C2.97075 2.5181 3.44967 1.8843 4.08325 1.436C4.71683 0.987693 5.47386 0.746948 6.25 0.746948C7.02614 0.746948 7.78317 0.987693 8.41675 1.436C9.05033 1.8843 9.52925 2.5181 9.7875 3.25001H18.75C19.0815 3.25001 19.3995 3.38171 19.6339 3.61613C19.8683 3.85055 20 4.16849 20 4.50001C20 4.83153 19.8683 5.14947 19.6339 5.38389C19.3995 5.61832 19.0815 5.75001 18.75 5.75001H9.7875C9.52925 6.48193 9.05033 7.11572 8.41675 7.56402C7.78317 8.01233 7.02614 8.25308 6.25 8.25308C5.47386 8.25308 4.71683 8.01233 4.08325 7.56402C3.44967 7.11572 2.97075 6.48193 2.7125 5.75001H1.25C0.918479 5.75001 0.600537 5.61832 0.366117 5.38389C0.131696 5.14947 0 4.83153 0 4.50001C0 4.16849 0.131696 3.85055 0.366117 3.61613C0.600537 3.38171 0.918479 3.25001 1.25 3.25001H2.7125ZM13.75 10.75C13.4185 10.75 13.1005 10.8817 12.8661 11.1161C12.6317 11.3505 12.5 11.6685 12.5 12C12.5 12.3315 12.6317 12.6495 12.8661 12.8839C13.1005 13.1183 13.4185 13.25 13.75 13.25C14.0815 13.25 14.3995 13.1183 14.6339 12.8839C14.8683 12.6495 15 12.3315 15 12C15 11.6685 14.8683 11.3505 14.6339 11.1161C14.3995 10.8817 14.0815 10.75 13.75 10.75ZM10.2125 10.75C10.4708 10.0181 10.9497 9.3843 11.5833 8.936C12.2168 8.48769 12.9739 8.24695 13.75 8.24695C14.5261 8.24695 15.2832 8.48769 15.9167 8.936C16.5503 9.3843 17.0292 10.0181 17.2875 10.75H18.75C19.0815 10.75 19.3995 10.8817 19.6339 11.1161C19.8683 11.3505 20 11.6685 20 12C20 12.3315 19.8683 12.6495 19.6339 12.8839C19.3995 13.1183 19.0815 13.25 18.75 13.25H17.2875C17.0292 13.9819 16.5503 14.6157 15.9167 15.064C15.2832 15.5123 14.5261 15.7531 13.75 15.7531C12.9739 15.7531 12.2168 15.5123 11.5833 15.064C10.9497 14.6157 10.4708 13.9819 10.2125 13.25H1.25C0.918479 13.25 0.600537 13.1183 0.366117 12.8839C0.131696 12.6495 0 12.3315 0 12C0 11.6685 0.131696 11.3505 0.366117 11.1161C0.600537 10.8817 0.918479 10.75 1.25 10.75H10.2125ZM6.25 18.25C5.91848 18.25 5.60054 18.3817 5.36612 18.6161C5.1317 18.8505 5 19.1685 5 19.5C5 19.8315 5.1317 20.1495 5.36612 20.3839C5.60054 20.6183 5.91848 20.75 6.25 20.75C6.58152 20.75 6.89946 20.6183 7.13388 20.3839C7.3683 20.1495 7.5 19.8315 7.5 19.5C7.5 19.1685 7.3683 18.8505 7.13388 18.6161C6.89946 18.3817 6.58152 18.25 6.25 18.25ZM2.7125 18.25C2.97075 17.5181 3.44967 16.8843 4.08325 16.436C4.71683 15.9877 5.47386 15.7469 6.25 15.7469C7.02614 15.7469 7.78317 15.9877 8.41675 16.436C9.05033 16.8843 9.52925 17.5181 9.7875 18.25H18.75C19.0815 18.25 19.3995 18.3817 19.6339 18.6161C19.8683 18.8505 20 19.1685 20 19.5C20 19.8315 19.8683 20.1495 19.6339 20.3839C19.3995 20.6183 19.0815 20.75 18.75 20.75H9.7875C9.52925 21.4819 9.05033 22.1157 8.41675 22.564C7.78317 23.0123 7.02614 23.2531 6.25 23.2531C5.47386 23.2531 4.71683 23.0123 4.08325 22.564C3.44967 22.1157 2.97075 21.4819 2.7125 20.75H1.25C0.918479 20.75 0.600537 20.6183 0.366117 20.3839C0.131696 20.1495 0 19.8315 0 19.5C0 19.1685 0.131696 18.8505 0.366117 18.6161C0.600537 18.3817 0.918479 18.25 1.25 18.25H2.7125Z" fill="currentColor"/>
</svg>
