<svg width="71" height="71" viewBox="0 0 71 71" fill="none" xmlns="http://www.w3.org/2000/svg">
<g clip-path="url(#clip0_48_164)">
<path d="M64.7024 38.9268C64.7024 56.6405 50.3412 71.0001 32.628 71.0001C28.2826 71.0001 24.1403 70.1361 20.362 68.5701C10.0353 64.2924 2.42893 54.7755 0.856407 43.335C0.656525 41.8941 0.554688 40.4224 0.554688 38.9268C0.554688 21.212 14.9143 6.85242 32.628 6.85242C50.3412 6.85242 64.7024 21.212 64.7024 38.9268Z" fill="#FFC02E"/>
<path d="M32.628 6.85242C30.9319 6.85242 29.2673 6.98513 27.6428 7.23864C42.9894 9.63344 54.7326 22.9075 54.7326 38.9268C54.7326 54.9439 42.9904 68.2174 27.645 70.6133C29.269 70.8668 30.9325 71.0001 32.6274 71.0001C50.3411 71.0001 64.7024 56.6405 64.7024 38.9268C64.7024 21.212 50.3411 6.85242 32.628 6.85242Z" fill="#FFA73B"/>
<path d="M68.7065 36.5558L50.3915 48.6837C49.0866 49.5482 47.506 49.8911 45.9611 49.6441C44.4124 49.3976 42.8279 49.7356 41.5198 50.6018L39.0686 52.2263L25.3423 31.9926L28.71 17.444C28.9716 16.3113 29.1011 15.1635 29.1011 14.02C29.1011 11.0618 28.236 8.14215 26.5768 5.63576C26.1689 5.01932 25.9739 4.32217 25.9739 3.63369C25.9739 2.45714 26.5448 1.30281 27.6 0.60403C29.022 -0.337964 30.9065 -0.162999 32.1307 1.02438L34.3126 3.1375C36.8076 5.5583 38.7322 8.50562 39.9408 11.7655L41.1238 14.9506L53.3069 6.90114C55.2526 5.61301 57.8847 6.17637 59.1273 8.16923C60.3255 10.089 59.7102 12.6257 57.8224 13.8754C57.7996 13.8905 57.798 13.9149 57.8056 13.9333C57.8164 13.9534 57.8392 13.9669 57.8646 13.9561C58.3462 13.7708 58.85 13.6809 59.3494 13.6809C60.1468 13.6809 60.9371 13.9106 61.6131 14.3477C62.079 14.6489 62.4917 15.0492 62.8173 15.5411C63.4462 16.4912 63.6336 17.6054 63.4278 18.6411C63.1049 20.2727 61.9192 21.1134 61.6862 21.2716C61.6467 21.2992 61.6359 21.3539 61.6635 21.3951C61.6635 21.3962 61.6651 21.3978 61.6662 21.3978C61.6922 21.4346 61.7453 21.4449 61.7832 21.4211C62.1153 21.3404 62.4533 21.3019 62.7913 21.3019C63.6163 21.3019 64.4369 21.5364 65.1346 21.9812C65.6064 22.2829 66.0235 22.6816 66.3464 23.1702C67.6128 25.0823 67.0896 27.6597 65.1752 28.9267C65.1281 28.9586 65.081 28.9906 65.0339 29.0209C65.0068 29.0426 64.9987 29.0773 65.0127 29.1017C65.0154 29.1076 65.0219 29.1141 65.0279 29.1168C65.049 29.1336 65.0826 29.1352 65.1102 29.1141C66.2992 28.7089 67.5933 28.8931 68.6345 29.5675C69.1138 29.8752 69.5391 30.2896 69.8755 30.7977C71.1425 32.7115 70.6187 35.2888 68.7065 36.5558Z" fill="#FDD7BD"/>
<path d="M39.2436 56.0663L31.517 61.183L20.3621 68.57C10.0353 64.2918 2.42896 54.7765 0.856445 43.335L13.8017 34.7622L21.6821 29.5431C22.5895 28.9418 23.8137 29.1915 24.415 30.1005L39.801 53.3318C40.4023 54.2408 40.1526 55.4628 39.2436 56.0663Z" fill="#D71921"/>
<path d="M39.2436 56.0663L31.517 61.183L13.8016 34.7622L21.6821 29.5431C22.5894 28.9418 23.8136 29.1915 24.4149 30.1005L39.801 53.3313C40.4023 54.2408 40.1525 55.4628 39.2436 56.0663Z" fill="#B7171E"/>
<path d="M61.6131 14.3472L55.5186 17.6087C54.6541 18.0702 53.5821 17.8291 53.0009 17.0421L57.8056 13.9333C57.8165 13.9534 57.8392 13.9669 57.8647 13.9561C58.3462 13.7708 58.85 13.6809 59.3494 13.6809C60.1473 13.6809 60.9371 13.9106 61.6131 14.3472Z" fill="#FAC5AA"/>
<path d="M65.1347 21.9812L59.1728 25.169C58.3083 25.6321 57.2363 25.3916 56.6545 24.6045L61.4593 21.4953L61.6668 21.3978C61.6928 21.4346 61.7459 21.4449 61.7838 21.4211C62.1158 21.3403 62.4538 21.3019 62.7919 21.3019C63.6168 21.3019 64.4375 21.5364 65.1347 21.9812Z" fill="#FAC5AA"/>
<path d="M68.635 29.5674L63.3839 32.3766C62.5205 32.8376 61.449 32.5971 60.8656 31.81L65.0279 29.1167C65.0496 29.1335 65.0832 29.1352 65.1103 29.1135C66.2993 28.7089 67.5934 28.893 68.635 29.5674Z" fill="#FAC5AA"/>
</g>
<defs>
<clipPath id="clip0_48_164">
<rect width="71" height="71" fill="white"/>
</clipPath>
</defs>
</svg>
