<svg width="19" height="19" viewBox="0 0 19 19" fill="none" xmlns="http://www.w3.org/2000/svg">
<path d="M9.50004 1.58325C7.93428 1.58325 6.40367 2.04756 5.10178 2.91745C3.79989 3.78735 2.78519 5.02376 2.186 6.47034C1.5868 7.91692 1.43003 9.5087 1.73549 11.0444C2.04096 12.5801 2.79495 13.9907 3.90212 15.0978C5.00928 16.205 6.4199 16.959 7.95558 17.2645C9.49126 17.5699 11.083 17.4132 12.5296 16.814C13.9762 16.2148 15.2126 15.2001 16.0825 13.8982C16.9524 12.5963 17.4167 11.0657 17.4167 9.49992C17.4167 8.46029 17.2119 7.43084 16.8141 6.47034C16.4162 5.50985 15.8331 4.63712 15.098 3.90199C14.3628 3.16686 13.4901 2.58372 12.5296 2.18587C11.5691 1.78802 10.5397 1.58325 9.50004 1.58325ZM9.50004 14.2499C9.34347 14.2499 9.19041 14.2035 9.06022 14.1165C8.93003 14.0295 8.82856 13.9059 8.76864 13.7612C8.70872 13.6166 8.69304 13.4574 8.72359 13.3038C8.75414 13.1502 8.82954 13.0092 8.94025 12.8985C9.05097 12.7877 9.19203 12.7123 9.3456 12.6818C9.49917 12.6512 9.65834 12.6669 9.803 12.7268C9.94766 12.7868 10.0713 12.8882 10.1583 13.0184C10.2453 13.1486 10.2917 13.3017 10.2917 13.4583C10.2917 13.6682 10.2083 13.8696 10.0598 14.018C9.91137 14.1665 9.71001 14.2499 9.50004 14.2499ZM10.2917 10.1649V11.0833C10.2917 11.2932 10.2083 11.4946 10.0598 11.643C9.91137 11.7915 9.71001 11.8749 9.50004 11.8749C9.29008 11.8749 9.08872 11.7915 8.94025 11.643C8.79179 11.4946 8.70838 11.2932 8.70838 11.0833V9.49992C8.70838 9.28996 8.79179 9.08859 8.94025 8.94013C9.08872 8.79166 9.29008 8.70825 9.50004 8.70825C9.73491 8.70825 9.9645 8.63861 10.1598 8.50812C10.3551 8.37764 10.5073 8.19218 10.5972 7.97519C10.687 7.7582 10.7105 7.51943 10.6647 7.28908C10.6189 7.05873 10.5058 6.84714 10.3397 6.68106C10.1737 6.51499 9.96207 6.40189 9.73172 6.35607C9.50136 6.31025 9.2626 6.33377 9.04561 6.42364C8.82862 6.51352 8.64316 6.66573 8.51267 6.86101C8.38219 7.0563 8.31254 7.28589 8.31254 7.52075C8.31254 7.73071 8.22914 7.93208 8.08067 8.08054C7.9322 8.22901 7.73084 8.31242 7.52088 8.31242C7.31091 8.31242 7.10955 8.22901 6.96108 8.08054C6.81262 7.93208 6.72921 7.73071 6.72921 7.52075C6.72714 7.00641 6.86827 6.50164 7.13681 6.06296C7.40535 5.62428 7.79069 5.269 8.2497 5.0369C8.7087 4.8048 9.22325 4.70505 9.73574 4.74881C10.2482 4.79256 10.7384 4.9781 11.1514 5.28465C11.5644 5.5912 11.884 6.00666 12.0743 6.48451C12.2646 6.96237 12.3181 7.48376 12.2288 7.99031C12.1396 8.49685 11.9111 8.96857 11.569 9.35263C11.2269 9.7367 10.7846 10.018 10.2917 10.1649Z" fill="currentColor"/>
</svg>
