<svg width="20" height="20" viewBox="0 0 20 20" fill="none" xmlns="http://www.w3.org/2000/svg">
<path fill-rule="evenodd" clip-rule="evenodd" d="M5.05002 4.05011C6.36284 2.73729 8.14341 1.99976 10 1.99976C11.8566 1.99976 13.6372 2.73729 14.95 4.05011C16.2628 5.36293 17.0004 7.1435 17.0004 9.00011C17.0004 10.8567 16.2628 12.6373 14.95 13.9501L10 18.9001L5.05002 13.9501C4.39993 13.3001 3.88425 12.5284 3.53242 11.6791C3.1806 10.8297 2.99951 9.91943 2.99951 9.00011C2.99951 8.0808 3.1806 7.17049 3.53242 6.32116C3.88425 5.47184 4.39993 4.70013 5.05002 4.05011ZM10 11.0001C10.5304 11.0001 11.0392 10.7894 11.4142 10.4143C11.7893 10.0393 12 9.53055 12 9.00011C12 8.46968 11.7893 7.96097 11.4142 7.5859C11.0392 7.21083 10.5304 7.00011 10 7.00011C9.46958 7.00011 8.96088 7.21083 8.5858 7.5859C8.21073 7.96097 8.00002 8.46968 8.00002 9.00011C8.00002 9.53055 8.21073 10.0393 8.5858 10.4143C8.96088 10.7894 9.46958 11.0001 10 11.0001Z" fill="currentColor"/>
</svg>
