<svg width="26" height="26" viewBox="0 0 26 26" fill="none" xmlns="http://www.w3.org/2000/svg">
<g clip-path="url(#clip0_9487_109)">
<path d="M21.2901 18.7879H4.70998C4.45666 18.7879 4.22002 18.6627 4.07739 18.4534C1.88983 15.2455 1.72202 9.07458 1.70932 8.15854C1.70853 8.12263 1.70813 8.08633 1.70813 8.05023C1.70813 7.62791 2.05011 7.28534 2.47243 7.28455H2.47401C2.89554 7.28455 3.23811 7.62553 3.2397 8.04726C3.2397 8.05241 3.2399 8.09764 3.24168 8.17778C3.30913 10.3564 5.10254 12.1078 7.29724 12.1078C9.53459 12.1078 11.3548 10.2876 11.3548 8.05023C11.3548 7.62732 11.6978 7.28455 12.1205 7.28455H13.8794C14.3023 7.28455 14.645 7.62732 14.645 8.05023C14.645 10.2876 16.4654 12.1078 18.7028 12.1078C20.8995 12.1078 22.6941 10.3532 22.7585 8.17183C22.7599 8.09526 22.7603 8.05241 22.7603 8.04745C22.7619 7.62553 23.1043 7.28455 23.526 7.28455H23.5274C23.9497 7.28534 24.2917 7.62791 24.2917 8.05023C24.2917 8.08653 24.2913 8.12263 24.2907 8.15874C24.2778 9.07458 24.11 15.2457 21.9226 18.4536C21.78 18.6627 21.5432 18.7879 21.2901 18.7879Z" fill="#FFF780"/>
<path d="M23.5274 7.28455C23.527 7.28455 23.5266 7.28455 23.526 7.28455C23.1045 7.28455 22.7619 7.62553 22.7604 8.04726C22.7604 8.05241 22.7602 8.09526 22.7586 8.17183C22.6941 10.353 20.8995 12.1078 18.7028 12.1078C16.4655 12.1078 14.6453 10.2876 14.6453 8.05023C14.6453 7.62732 14.3023 7.28455 13.8796 7.28455H13.0002V18.7877H21.2901C21.5434 18.7877 21.78 18.6625 21.9227 18.4534C24.1102 15.2455 24.278 9.07439 24.2907 8.15854C24.2915 8.12263 24.2919 8.08633 24.2919 8.05023C24.2917 7.62791 23.9498 7.28534 23.5274 7.28455Z" fill="#FFC02E"/>
<path d="M13 4.67188C11.6358 4.67188 10.526 5.78172 10.526 7.14587C10.526 8.51003 11.6358 9.61967 13 9.61967C14.3642 9.61967 15.474 8.51003 15.474 7.14587C15.474 5.78172 14.3642 4.67188 13 4.67188Z" fill="#FFC02E"/>
<path d="M13.0002 4.67188V9.61987C14.3644 9.61967 15.474 8.51003 15.474 7.14587C15.474 5.78172 14.3642 4.67207 13.0002 4.67188Z" fill="#FFA73B"/>
<path d="M2.474 6.58118C1.10985 6.58118 0 7.69102 0 9.05518C0 10.4193 1.10985 11.5292 2.474 11.5292C3.83815 11.5292 4.9478 10.4193 4.9478 9.05518C4.9478 7.69102 3.83815 6.58118 2.474 6.58118Z" fill="#FFC02E"/>
<path d="M23.526 6.58118C22.1619 6.58118 21.0522 7.69102 21.0522 9.05518C21.0522 10.4191 22.1619 11.529 23.526 11.529C24.8902 11.529 26 10.4191 26 9.05518C26 7.69102 24.8902 6.58118 23.526 6.58118Z" fill="#FFA73B"/>
<path d="M21.2901 21.2998H4.71002C4.28711 21.2998 3.94434 20.957 3.94434 20.5341V18.2507H22.0558V20.5341C22.0558 20.957 21.713 21.2998 21.2901 21.2998Z" fill="#FFC02E"/>
<path d="M13.0002 21.2998H21.2901C21.713 21.2998 22.0558 20.957 22.0558 20.5341V18.2507H13.0002V21.2998Z" fill="#FFA73B"/>
</g>
<defs>
<clipPath id="clip0_9487_109">
<rect width="26" height="26" fill="white"/>
</clipPath>
</defs>
</svg>
