<svg width="60" height="12" viewBox="0 0 60 12" fill="none" xmlns="http://www.w3.org/2000/svg">
<path d="M44.7806 10.78C44.6996 10.7799 44.6198 10.7602 44.5481 10.7225L41.9996 9.38254L39.4511 10.7225C39.3685 10.766 39.2754 10.7854 39.1824 10.7787C39.0893 10.772 39 10.7393 38.9245 10.6845C38.8491 10.6297 38.7904 10.5548 38.7553 10.4684C38.7201 10.382 38.7098 10.2875 38.7256 10.1955L39.2121 7.35754L37.1506 5.34754C37.0839 5.28241 37.0367 5.19993 37.0144 5.10941C36.9921 5.01889 36.9955 4.92394 37.0244 4.83528C37.0532 4.74661 37.1062 4.66777 37.1774 4.60765C37.2487 4.54753 37.3353 4.50852 37.4276 4.49504L40.2771 4.08104L41.5511 1.49904C41.5972 1.4211 41.6628 1.3565 41.7414 1.31163C41.82 1.26676 41.909 1.24316 41.9996 1.24316C42.0901 1.24316 42.1791 1.26676 42.2578 1.31163C42.3364 1.3565 42.402 1.4211 42.4481 1.49904L43.7221 4.08104L46.5716 4.49504C46.6639 4.50845 46.7507 4.54744 46.822 4.6076C46.8934 4.66775 46.9465 4.74667 46.9753 4.83542C47.0041 4.92418 47.0075 5.01923 46.9851 5.10982C46.9627 5.20042 46.9154 5.28293 46.8486 5.34804L44.7871 7.35754L45.2736 10.1955C45.2859 10.2673 45.2824 10.3409 45.2633 10.4112C45.2442 10.4815 45.2099 10.5467 45.163 10.6024C45.116 10.6581 45.0575 10.7028 44.9914 10.7335C44.9254 10.7642 44.8534 10.7801 44.7806 10.78Z" fill="#FFC02E"/>
<path d="M32.7806 10.78C32.6996 10.7799 32.6198 10.7602 32.5481 10.7225L29.9996 9.38254L27.4511 10.7225C27.3685 10.766 27.2754 10.7854 27.1824 10.7787C27.0893 10.772 27 10.7393 26.9245 10.6845C26.8491 10.6297 26.7904 10.5548 26.7553 10.4684C26.7201 10.382 26.7098 10.2875 26.7256 10.1955L27.2121 7.35754L25.1506 5.34754C25.0839 5.28241 25.0367 5.19993 25.0144 5.10941C24.9921 5.01889 24.9955 4.92394 25.0244 4.83528C25.0532 4.74661 25.1062 4.66777 25.1774 4.60765C25.2487 4.54753 25.3353 4.50852 25.4276 4.49504L28.2771 4.08104L29.5511 1.49904C29.5972 1.4211 29.6628 1.3565 29.7414 1.31163C29.82 1.26676 29.909 1.24316 29.9996 1.24316C30.0901 1.24316 30.1791 1.26676 30.2578 1.31163C30.3364 1.3565 30.402 1.4211 30.4481 1.49904L31.7221 4.08104L34.5716 4.49504C34.6639 4.50845 34.7507 4.54744 34.822 4.6076C34.8934 4.66775 34.9465 4.74667 34.9753 4.83542C35.0041 4.92418 35.0075 5.01923 34.9851 5.10982C34.9627 5.20042 34.9154 5.28293 34.8486 5.34804L32.7871 7.35754L33.2736 10.1955C33.2859 10.2673 33.2824 10.3409 33.2633 10.4112C33.2442 10.4815 33.2099 10.5467 33.163 10.6024C33.116 10.6581 33.0575 10.7028 32.9914 10.7335C32.9254 10.7642 32.8534 10.7801 32.7806 10.78Z" fill="#FFC02E"/>
<path d="M20.7805 10.78C20.6995 10.7799 20.6197 10.7602 20.548 10.7225L17.9995 9.38254L15.451 10.7225C15.3684 10.766 15.2754 10.7854 15.1823 10.7787C15.0893 10.772 15 10.7393 14.9245 10.6845C14.849 10.6297 14.7904 10.5548 14.7552 10.4684C14.72 10.382 14.7098 10.2875 14.7255 10.1955L15.212 7.35754L13.1505 5.34754C13.0838 5.28241 13.0366 5.19993 13.0143 5.10941C12.992 5.01889 12.9955 4.92394 13.0243 4.83528C13.0531 4.74661 13.1061 4.66777 13.1774 4.60765C13.2486 4.54753 13.3353 4.50852 13.4275 4.49504L16.277 4.08104L17.551 1.49904C17.5971 1.4211 17.6627 1.3565 17.7413 1.31163C17.82 1.26676 17.909 1.24316 17.9995 1.24316C18.0901 1.24316 18.179 1.26676 18.2577 1.31163C18.3363 1.3565 18.4019 1.4211 18.448 1.49904L19.722 4.08104L22.5715 4.49504C22.6639 4.50845 22.7506 4.54744 22.822 4.6076C22.8933 4.66775 22.9464 4.74667 22.9752 4.83542C23.004 4.92418 23.0074 5.01923 22.9851 5.10982C22.9627 5.20042 22.9154 5.28293 22.8485 5.34804L20.787 7.35754L21.2735 10.1955C21.2858 10.2673 21.2823 10.3409 21.2632 10.4112C21.2441 10.4815 21.2099 10.5467 21.1629 10.6024C21.116 10.6581 21.0574 10.7028 20.9914 10.7335C20.9253 10.7642 20.8533 10.7801 20.7805 10.78Z" fill="#FFC02E"/>
<path d="M8.78052 10.78C8.69951 10.7799 8.61974 10.7602 8.54802 10.7225L5.99952 9.38254L3.45102 10.7225C3.36844 10.766 3.27537 10.7854 3.18232 10.7787C3.08927 10.772 2.99996 10.7393 2.92448 10.6845C2.849 10.6297 2.79037 10.5548 2.75521 10.4684C2.72005 10.382 2.70976 10.2875 2.72552 10.1955L3.21202 7.35754L1.15052 5.34754C1.08381 5.28241 1.03664 5.19993 1.01434 5.10941C0.992033 5.01889 0.99548 4.92394 1.02429 4.83528C1.0531 4.74661 1.10612 4.66777 1.17738 4.60765C1.24863 4.54753 1.33527 4.50852 1.42752 4.49504L4.27702 4.08104L5.55102 1.49904C5.59709 1.4211 5.66269 1.3565 5.74134 1.31163C5.81998 1.26676 5.90897 1.24316 5.99952 1.24316C6.09006 1.24316 6.17905 1.26676 6.2577 1.31163C6.33634 1.3565 6.40194 1.4211 6.44802 1.49904L7.72202 4.08104L10.5715 4.49504C10.6639 4.50845 10.7506 4.54744 10.822 4.6076C10.8933 4.66775 10.9464 4.74667 10.9752 4.83542C11.004 4.92418 11.0074 5.01923 10.9851 5.10982C10.9627 5.20042 10.9154 5.28293 10.8485 5.34804L8.78702 7.35754L9.27352 10.1955C9.28582 10.2673 9.2823 10.3409 9.2632 10.4112C9.24409 10.4815 9.20987 10.5467 9.16291 10.6024C9.11595 10.6581 9.0574 10.7028 8.99135 10.7335C8.9253 10.7642 8.85335 10.7801 8.78052 10.78Z" fill="#FFC02E"/>
<path opacity="0.5" d="M58.9756 4.83502C58.9467 4.74636 58.8936 4.66754 58.8223 4.60746C58.751 4.54738 58.6643 4.50844 58.5721 4.49502L55.7226 4.08102L54.4486 1.49902C54.4051 1.41875 54.3401 1.35223 54.2609 1.30699C54.1816 1.26175 54.0913 1.23959 54.0001 1.24302V9.38302L56.5486 10.7225C56.6311 10.7659 56.7242 10.7854 56.8173 10.7787C56.9103 10.7719 56.9996 10.7393 57.0751 10.6845C57.1506 10.6297 57.2092 10.5548 57.2444 10.4684C57.2795 10.382 57.2898 10.2875 57.2741 10.1955L56.7876 7.35752L58.8491 5.34752C58.9159 5.2824 58.9631 5.19989 58.9855 5.10933C59.0078 5.01876 59.0044 4.92374 58.9756 4.83502Z" fill="#676767"/>
<path d="M53.5514 1.49896L52.2774 4.08096L49.4279 4.49497C49.3356 4.50838 49.2488 4.54736 49.1775 4.60752C49.1061 4.66767 49.053 4.74659 49.0242 4.83535C48.9954 4.9241 48.992 5.01915 49.0144 5.10975C49.0368 5.20034 49.084 5.28286 49.1509 5.34797L51.2124 7.35747L50.7259 10.1955C50.7102 10.2873 50.7205 10.3818 50.7557 10.4681C50.7908 10.5545 50.8494 10.6293 50.9248 10.6841C51.0002 10.7389 51.0894 10.7715 51.1824 10.7783C51.2753 10.7851 51.3683 10.7657 51.4509 10.7225L53.9999 9.38247V1.25146C53.8219 1.25196 53.6484 1.33496 53.5514 1.49896Z" fill="#FFC02E"/>
</svg>
