<svg width="15" height="15" viewBox="0 0 15 15" fill="none" xmlns="http://www.w3.org/2000/svg">
<path d="M11.7318 14.631C11.6143 14.6308 11.4986 14.6022 11.3946 14.5476L7.69932 12.6046L4.004 14.5476C3.88427 14.6105 3.74932 14.6387 3.6144 14.629C3.47948 14.6192 3.34997 14.5719 3.24053 14.4924C3.13108 14.4129 3.04606 14.3044 2.99508 14.1791C2.9441 14.0538 2.92918 13.9168 2.95203 13.7834L3.65745 9.66833L0.668281 6.75383C0.571559 6.6594 0.503166 6.5398 0.470824 6.40855C0.438482 6.27729 0.44348 6.13961 0.485253 6.01105C0.527027 5.88249 0.603912 5.76816 0.707227 5.68099C0.810542 5.59381 0.936172 5.53726 1.06993 5.51771L5.2017 4.91741L7.049 1.17352C7.11581 1.06049 7.21092 0.966832 7.32496 0.90177C7.439 0.836708 7.56803 0.80249 7.69932 0.80249C7.83062 0.80249 7.95965 0.836708 8.07368 0.90177C8.18772 0.966832 8.28284 1.06049 8.34965 1.17352L10.1969 4.91741L14.3287 5.51771C14.4626 5.53716 14.5884 5.59369 14.6919 5.68091C14.7953 5.76813 14.8723 5.88257 14.9141 6.01126C14.9559 6.13996 14.9608 6.27778 14.9283 6.40914C14.8959 6.5405 14.8273 6.66015 14.7304 6.75456L11.7412 9.66833L12.4466 13.7834C12.4645 13.8875 12.4594 13.9942 12.4317 14.0961C12.404 14.198 12.3543 14.2927 12.2862 14.3734C12.2182 14.4541 12.1333 14.519 12.0375 14.5635C11.9417 14.608 11.8374 14.631 11.7318 14.631Z" fill="currentColor"/>
</svg>
