<svg width="16" height="16" viewBox="0 0 16 16" fill="none" xmlns="http://www.w3.org/2000/svg">
<g clip-path="url(#clip0_9487_151)">
<path d="M15.8755 11.2204C15.8588 11.1303 15.8388 11.0369 15.8088 10.9468C15.5219 10.146 14.7011 9.66555 13.8636 9.80903C13.5866 9.8524 13.3264 9.66222 13.283 9.38528L12.8626 6.68934C12.5123 4.4038 10.8607 2.53199 8.63853 1.90471C8.435 0.666849 7.27054 -0.170628 6.03268 0.029566C4.8115 0.22976 3.97402 1.37086 4.15086 2.59538C2.23567 3.80655 1.22136 6.04205 1.57837 8.28422L2.03214 11.157C2.07218 11.4339 1.88534 11.6942 1.6084 11.7376C0.767589 11.8577 0.133643 12.565 0.103614 13.4158C0.093604 14.3601 0.851003 15.1308 1.79525 15.1409C1.80192 15.1409 1.8086 15.1409 1.81193 15.1409C1.90202 15.1409 1.98877 15.1342 2.07886 15.1208L3.83055 14.8439C4.44114 15.9316 5.8158 16.322 6.90686 15.7114C7.48075 15.3878 7.88781 14.8339 8.01793 14.1866L14.4542 13.1723C15.3851 13.0255 16.0223 12.1513 15.8755 11.2204ZM5.79578 14.8639C5.55555 14.8639 5.31866 14.7872 5.12513 14.6437L6.72001 14.3935C6.50647 14.6904 6.1628 14.8639 5.79578 14.8639ZM7.3306 1.71453C7.11706 1.70786 6.90686 1.71453 6.69332 1.73121C6.46977 1.75123 6.24956 1.78793 6.02934 1.83465C5.98263 1.84466 5.93592 1.858 5.88921 1.86801C5.70903 1.91139 5.53553 1.9581 5.36203 2.01816C5.34535 2.02149 5.32533 2.02483 5.30865 2.0315C5.42876 1.60109 5.78911 1.28078 6.22954 1.21405C6.28959 1.20404 6.34965 1.2007 6.40971 1.2007C6.79008 1.20404 7.14709 1.39422 7.35729 1.71453H7.3306Z" fill="currentColor"/>
</g>
<defs>
<clipPath id="clip0_9487_151">
<rect width="16" height="16" fill="white"/>
</clipPath>
</defs>
</svg>
