<svg width="16" height="16" viewBox="0 0 16 16" fill="none" xmlns="http://www.w3.org/2000/svg">
<g clip-path="url(#clip0_9487_121)">
<path d="M15 14C14.875 14 14.6146 13.8229 14.2188 13.4688C13.875 13.3542 13.6354 13.3646 13.5 13.5C13.3646 13.6354 13.3542 13.875 13.4688 14.2188C13.8229 14.6146 14 14.875 14 15C14 15.2708 13.901 15.5052 13.7031 15.7031C13.5052 15.901 13.2682 16 12.9922 16C12.7161 16 12.4818 15.901 12.2891 15.7031C12.0964 15.5052 12 15.2708 12 15C12 14.875 11.9792 14.7318 11.9375 14.5703C11.8958 14.4089 11.7969 14.1615 11.6406 13.8281C11.4844 13.4948 11.3542 13.2214 11.25 13.0078C11.1458 12.7943 10.9427 12.3802 10.6406 11.7656L9.51562 10.7031C9.52604 10.6823 9.5625 10.6198 9.625 10.5156C9.6875 10.4115 9.7474 10.3177 9.80469 10.2344C9.86198 10.151 9.92708 10.0729 10 10C10.0729 9.92708 10.1484 9.86198 10.2266 9.80469C10.3047 9.7474 10.3932 9.6901 10.4922 9.63281C10.5911 9.57552 10.6562 9.53646 10.6875 9.51562L11.7656 10.6406C12.3802 10.9427 12.7943 11.1458 13.0078 11.25C13.2214 11.3542 13.4948 11.4844 13.8281 11.6406C14.1615 11.7969 14.4089 11.8958 14.5703 11.9375C14.7318 11.9792 14.875 12 15 12C15.2708 12 15.5052 12.099 15.7031 12.2969C15.901 12.4948 16 12.7318 16 13.0078C16 13.2839 15.901 13.5182 15.7031 13.7109C15.5052 13.9036 15.2708 14 15 14ZM9.5 9.5C9.375 9.625 9.26302 9.78125 9.16406 9.96875C9.0651 10.1562 8.97135 10.2917 8.88281 10.375C8.79427 10.4583 8.66667 10.5 8.5 10.5C8.04167 10.5 7.60677 10.4479 7.19531 10.3438C6.78385 10.2396 6.44531 10.1172 6.17969 9.97656C5.91406 9.83594 5.57552 9.66927 5.16406 9.47656C4.7526 9.28385 4.36458 9.125 4 9C2.47917 8.48958 1.43229 7.91927 0.859375 7.28906C0.286458 6.65885 0 5.72917 0 4.5C0 3.26042 0.440104 2.20052 1.32031 1.32031C2.20052 0.440104 3.26042 0 4.5 0C5.72917 0 6.65885 0.286458 7.28906 0.859375C7.91927 1.43229 8.48958 2.47917 9 4C9.14583 4.42708 9.35677 4.90885 9.63281 5.44531C9.90885 5.98177 10.1224 6.47656 10.2734 6.92969C10.4245 7.38281 10.5 7.90625 10.5 8.5C10.5 8.65625 10.4557 8.77865 10.3672 8.86719C10.2786 8.95573 10.1406 9.05469 9.95312 9.16406C9.76562 9.27344 9.61458 9.38542 9.5 9.5Z" fill="currentColor"/>
</g>
<defs>
<clipPath id="clip0_9487_121">
<rect width="16" height="16" fill="white"/>
</clipPath>
</defs>
</svg>
