<svg width="16" height="16" viewBox="0 0 16 16" fill="none" xmlns="http://www.w3.org/2000/svg">
<g clip-path="url(#clip0_9487_127)">
<path d="M15.75 7.98534C15.7579 12.2553 12.2756 15.747 8.00562 15.75C6.16141 15.7513 4.46741 15.1084 3.13619 14.034C2.79003 13.7546 2.76416 13.2358 3.07872 12.9213L3.43081 12.5692C3.69984 12.3002 4.12934 12.2707 4.42741 12.5072C5.40819 13.2855 6.64941 13.75 8 13.75C11.1783 13.75 13.75 11.1778 13.75 8C13.75 4.82172 11.1778 2.25 8 2.25C6.47456 2.25 5.08909 2.84278 4.06038 3.81037L5.64644 5.39644C5.96144 5.71144 5.73834 6.25 5.29291 6.25H0.75C0.473844 6.25 0.25 6.02616 0.25 5.75V1.20709C0.25 0.761656 0.788562 0.538562 1.10356 0.853531L2.64644 2.39641C4.03778 1.06675 5.9235 0.25 8 0.25C12.2753 0.25 15.7421 3.71187 15.75 7.98534ZM10.0965 10.4473L10.4035 10.0527C10.6578 9.72569 10.5989 9.25447 10.2719 9.00019L9 8.01091V4.75C9 4.33578 8.66422 4 8.25 4H7.75C7.33578 4 7 4.33578 7 4.75V8.98909L9.04403 10.5789C9.371 10.8332 9.84219 10.7743 10.0965 10.4473Z" fill="currentColor"/>
</g>
<defs>
<clipPath id="clip0_9487_127">
<rect width="16" height="16" fill="white"/>
</clipPath>
</defs>
</svg>
