<svg width="18" height="18" viewBox="0 0 18 18" fill="none" xmlns="http://www.w3.org/2000/svg">
<path d="M14.25 1.5H3.75C2.5095 1.5 1.5 2.5095 1.5 3.75V5.87325C1.5 6.663 1.7865 7.38075 2.25 7.93275V15C2.25 15.1989 2.32902 15.3897 2.46967 15.5303C2.61032 15.671 2.80109 15.75 3 15.75H9C9.19891 15.75 9.38968 15.671 9.53033 15.5303C9.67098 15.3897 9.75 15.1989 9.75 15V11.25H12.75V15C12.75 15.1989 12.829 15.3897 12.9697 15.5303C13.1103 15.671 13.3011 15.75 13.5 15.75H15C15.1989 15.75 15.3897 15.671 15.5303 15.5303C15.671 15.3897 15.75 15.1989 15.75 15V7.932C16.2135 7.38075 16.5 6.663 16.5 5.8725V3.75C16.5 2.5095 15.4905 1.5 14.25 1.5ZM15 3.75V5.87325C15 6.72825 14.3632 7.45725 13.5817 7.4985L13.5 7.5C12.6727 7.5 12 6.82725 12 6V3H14.25C14.664 3 15 3.33675 15 3.75ZM7.5 6V3H10.5V6C10.5 6.82725 9.82725 7.5 9 7.5C8.17275 7.5 7.5 6.82725 7.5 6ZM3 3.75C3 3.33675 3.336 3 3.75 3H6V6C6 6.82725 5.32725 7.5 4.5 7.5L4.41825 7.49775C3.63675 7.45725 3 6.72825 3 5.87325V3.75ZM7.5 12H4.5V9.75H7.5V12Z" fill="currentColor"/>
</svg>
